<svg id="svg" version="1.1" xmlns="http://www.w3.org/2000/svg" xmlns:xlink="http://www.w3.org/1999/xlink" width="400" height="400" viewBox="0, 0, 400,400"><g id="svgg"><path id="path0" d="M295.152 139.922 C 294.926 140.515,294.113 142.710,293.345 144.800 C 292.578 146.890,291.435 149.950,290.806 151.600 C 290.177 153.250,289.284 155.680,288.821 157.000 C 288.358 158.320,287.813 159.760,287.610 160.200 C 287.407 160.640,286.979 161.810,286.659 162.800 C 286.339 163.790,285.592 165.860,285.000 167.400 C 283.280 171.869,281.792 175.863,280.009 180.800 C 279.095 183.330,277.801 186.840,277.134 188.600 C 276.467 190.360,275.561 192.790,275.121 194.000 C 274.682 195.210,274.172 196.560,273.989 197.000 C 273.807 197.440,273.211 199.060,272.666 200.600 C 272.120 202.140,271.100 204.930,270.397 206.800 C 269.695 208.670,268.440 212.090,267.608 214.400 C 266.776 216.710,265.804 219.297,265.448 220.149 C 264.556 222.281,264.623 222.688,265.980 223.390 C 268.111 224.492,268.022 224.614,270.817 216.800 C 271.643 214.490,272.895 211.070,273.600 209.200 C 274.304 207.330,275.568 203.910,276.409 201.600 C 277.250 199.290,278.510 195.870,279.209 194.000 C 279.908 192.130,281.168 188.710,282.009 186.400 C 282.850 184.090,284.110 180.670,284.809 178.800 C 285.508 176.930,286.768 173.510,287.609 171.200 C 288.450 168.890,289.710 165.470,290.409 163.600 C 291.108 161.730,292.368 158.310,293.209 156.000 C 294.050 153.690,295.275 150.360,295.932 148.600 C 299.674 138.577,299.568 139.451,297.082 139.074 C 295.707 138.866,295.524 138.946,295.152 139.922 M138.400 143.838 C 136.090 144.129,133.480 144.547,132.600 144.766 C 131.720 144.985,130.480 145.288,129.844 145.439 C 126.287 146.286,118.770 150.775,115.264 154.146 C 105.243 163.781,101.837 177.060,105.552 192.000 C 108.450 203.653,119.550 214.365,131.600 217.137 C 132.590 217.364,134.245 217.742,135.277 217.975 C 137.733 218.531,146.554 218.521,149.269 217.959 C 150.441 217.717,153.560 217.002,156.200 216.371 C 158.840 215.740,161.630 215.173,162.400 215.111 L 163.800 215.000 163.800 209.300 C 163.800 202.929,163.555 202.452,161.916 205.625 C 156.445 216.212,139.733 218.051,127.000 209.466 C 111.865 199.261,106.517 177.780,115.428 162.982 C 116.182 161.729,116.800 160.587,116.800 160.446 C 116.800 158.112,126.577 150.784,132.200 148.903 C 145.530 144.444,156.644 147.779,160.385 157.361 C 161.254 159.587,161.626 157.872,161.512 152.168 L 161.400 146.600 159.600 146.363 C 158.610 146.233,156.360 145.724,154.600 145.233 C 151.804 144.453,144.125 143.151,143.000 143.266 C 142.780 143.289,140.710 143.546,138.400 143.838 M184.200 144.966 C 183.320 145.257,181.206 145.923,179.502 146.447 C 176.044 147.511,175.876 147.686,177.619 148.408 C 180.088 149.431,180.000 148.194,180.000 181.796 C 180.000 215.413,180.101 213.939,177.652 216.153 C 176.254 217.418,177.005 217.600,183.600 217.600 C 189.943 217.600,191.247 217.319,189.582 216.313 C 187.309 214.939,187.200 214.106,187.200 198.174 L 187.200 183.516 188.227 181.458 C 192.456 172.983,203.150 171.074,209.457 177.668 C 213.328 181.716,213.591 183.096,213.594 199.400 C 213.597 214.178,213.529 214.652,211.139 216.327 C 209.687 217.345,210.902 217.600,217.200 217.600 C 223.498 217.600,224.713 217.345,223.261 216.327 C 220.905 214.675,220.803 214.028,220.801 200.726 C 220.800 184.812,219.951 180.647,215.768 176.017 C 209.311 168.870,196.292 168.051,189.128 174.341 C 188.340 175.033,187.583 175.600,187.447 175.600 C 187.311 175.600,187.200 168.580,187.200 160.000 C 187.200 142.496,187.477 143.885,184.200 144.966 M243.400 154.382 C 241.890 155.006,240.713 156.688,240.537 158.475 C 240.015 163.770,246.842 166.030,249.616 161.481 C 252.041 157.504,247.736 152.588,243.400 154.382 M89.800 161.793 C 86.104 163.460,84.755 164.000,84.284 164.000 C 83.996 164.000,83.589 164.153,83.380 164.340 C 83.171 164.528,81.740 165.170,80.200 165.769 C 77.399 166.858,71.659 169.217,69.400 170.209 C 68.740 170.498,66.760 171.303,65.000 171.997 C 63.240 172.691,60.810 173.681,59.600 174.197 C 58.390 174.714,56.680 175.434,55.800 175.798 C 54.920 176.163,53.030 176.947,51.600 177.541 L 49.000 178.621 48.875 180.584 C 48.687 183.539,48.968 184.149,50.887 184.949 C 51.829 185.342,53.590 186.086,54.800 186.603 C 56.010 187.119,58.440 188.109,60.200 188.803 C 61.960 189.497,63.940 190.302,64.600 190.591 C 66.859 191.583,72.599 193.942,75.400 195.031 C 76.940 195.630,78.371 196.272,78.580 196.460 C 78.789 196.647,79.196 196.800,79.484 196.800 C 79.773 196.800,80.772 197.150,81.704 197.577 C 86.552 199.798,91.377 201.583,91.690 201.270 C 91.882 201.078,91.985 199.703,91.920 198.215 L 91.800 195.509 85.400 192.960 C 81.880 191.559,78.856 190.409,78.681 190.406 C 78.505 190.403,77.616 190.040,76.706 189.600 C 75.795 189.160,74.902 188.800,74.721 188.800 C 74.539 188.800,73.628 188.459,72.696 188.043 C 70.488 187.058,61.920 183.699,59.641 182.925 C 58.035 182.380,56.479 181.333,56.852 181.050 C 56.934 180.988,57.630 180.706,58.400 180.422 C 59.170 180.138,60.563 179.567,61.496 179.153 C 62.428 178.739,63.339 178.400,63.521 178.400 C 63.702 178.400,64.595 178.040,65.506 177.600 C 66.416 177.160,67.316 176.800,67.506 176.800 C 67.695 176.800,68.595 176.440,69.506 176.000 C 70.416 175.560,71.316 175.200,71.506 175.200 C 71.695 175.200,72.595 174.840,73.506 174.400 C 74.416 173.960,75.316 173.600,75.506 173.600 C 75.695 173.600,76.595 173.240,77.506 172.800 C 78.416 172.360,79.404 172.000,79.701 172.000 C 79.997 172.000,80.411 171.842,80.620 171.649 C 80.829 171.456,82.080 170.898,83.400 170.410 C 84.720 169.921,86.492 169.264,87.337 168.950 C 88.183 168.635,89.578 168.020,90.437 167.581 L 92.000 166.784 92.000 163.992 C 92.000 160.962,91.888 160.850,89.800 161.793 M307.282 164.064 L 307.400 167.000 324.800 173.965 C 334.370 177.796,342.279 180.995,342.376 181.075 C 342.805 181.426,341.144 182.380,338.000 183.586 C 336.130 184.303,333.837 185.230,332.904 185.645 C 331.972 186.060,330.973 186.400,330.684 186.400 C 330.396 186.400,329.989 186.562,329.780 186.761 C 329.571 186.959,328.583 187.394,327.585 187.727 C 322.914 189.286,308.145 195.380,307.700 195.932 C 307.000 196.801,307.037 201.163,307.747 201.435 C 308.047 201.550,309.622 201.072,311.247 200.372 C 312.871 199.672,314.740 198.866,315.400 198.582 C 316.060 198.297,318.040 197.497,319.800 196.803 C 322.638 195.685,324.994 194.705,329.000 192.981 C 329.660 192.697,331.640 191.897,333.400 191.203 C 336.229 190.088,338.346 189.209,342.600 187.382 C 343.260 187.099,345.060 186.374,346.600 185.771 C 350.407 184.280,350.400 184.288,350.400 181.400 C 350.400 178.352,350.649 178.569,344.200 176.003 C 341.340 174.865,338.460 173.702,337.800 173.418 C 333.647 171.633,331.432 170.713,328.600 169.597 C 326.840 168.903,324.860 168.098,324.200 167.809 C 321.984 166.836,316.225 164.467,313.400 163.366 C 311.860 162.766,310.420 162.143,310.200 161.983 C 309.980 161.823,309.207 161.565,308.482 161.410 L 307.164 161.128 307.282 164.064 M246.800 171.064 C 245.150 171.583,243.080 172.218,242.200 172.476 C 239.624 173.230,239.326 173.650,240.857 174.375 C 243.204 175.486,243.188 175.343,243.194 194.815 C 243.201 214.227,243.155 214.635,240.811 216.277 C 239.282 217.348,240.423 217.600,246.800 217.600 C 253.143 217.600,254.447 217.319,252.782 216.313 C 250.412 214.880,250.401 214.766,250.394 191.916 C 250.391 180.412,250.256 170.802,250.094 170.561 C 249.889 170.254,248.895 170.406,246.800 171.064 " stroke="none" fill="#fc0909" fill-rule="evenodd"></path><path id="path1" d="M0.000 200.000 L 0.000 400.000 200.000 400.000 L 400.000 400.000 400.000 200.000 L 400.000 0.000 200.000 0.000 L 0.000 0.000 0.000 200.000 M298.295 138.658 C 300.207 139.388,300.191 139.244,298.773 143.100 C 298.348 144.255,297.640 146.190,297.200 147.400 C 295.257 152.744,294.702 154.250,294.400 155.000 C 294.098 155.750,293.543 157.256,291.600 162.600 C 289.657 167.944,289.102 169.450,288.800 170.200 C 288.498 170.950,287.943 172.456,286.000 177.800 C 284.057 183.144,283.502 184.650,283.200 185.400 C 282.898 186.150,282.343 187.656,280.400 193.000 C 278.457 198.344,277.902 199.850,277.600 200.600 C 277.298 201.350,276.743 202.856,274.800 208.200 C 272.841 213.587,272.301 215.051,271.998 215.800 C 271.387 217.309,270.324 220.201,269.719 222.000 C 268.724 224.956,267.781 225.282,264.700 223.733 C 263.453 223.106,263.474 223.156,263.965 221.919 C 264.166 221.413,264.723 219.920,265.204 218.600 C 265.685 217.280,266.223 215.840,266.400 215.400 C 266.710 214.629,267.558 212.326,269.160 207.900 C 269.578 206.745,270.496 204.270,271.200 202.400 C 271.904 200.530,272.839 198.010,273.279 196.800 C 273.718 195.590,274.222 194.240,274.399 193.800 C 274.575 193.360,274.936 192.370,275.200 191.600 C 275.464 190.830,275.825 189.840,276.001 189.400 C 276.178 188.960,276.700 187.565,277.161 186.300 C 277.622 185.035,278.378 182.965,278.839 181.700 C 279.300 180.435,279.823 179.040,280.000 178.600 C 280.177 178.160,280.700 176.765,281.161 175.500 C 281.622 174.235,282.378 172.165,282.839 170.900 C 283.300 169.635,283.823 168.240,284.000 167.800 C 284.177 167.360,284.700 165.965,285.161 164.700 C 285.622 163.435,286.378 161.365,286.839 160.100 C 287.300 158.835,287.822 157.440,287.999 157.000 C 288.175 156.560,288.536 155.570,288.800 154.800 C 289.064 154.030,289.425 153.040,289.601 152.600 C 289.778 152.160,290.300 150.765,290.761 149.500 C 291.222 148.235,291.978 146.165,292.439 144.900 C 295.211 137.302,295.088 137.433,298.295 138.658 M150.200 143.402 C 151.740 143.733,153.630 144.171,154.400 144.376 C 155.170 144.580,157.150 145.079,158.800 145.483 L 161.800 146.219 161.910 152.518 C 162.042 160.061,160.821 161.944,159.250 156.622 C 156.308 146.659,137.600 144.757,125.257 153.166 C 110.914 162.938,107.635 184.065,118.046 199.633 C 129.253 216.393,155.196 219.242,161.666 204.424 C 162.374 202.803,162.738 202.391,163.382 202.483 C 164.167 202.595,164.200 202.859,164.200 208.959 L 164.200 215.319 161.800 215.873 C 160.480 216.178,158.770 216.590,158.000 216.789 C 157.230 216.987,155.700 217.353,154.600 217.603 C 153.500 217.852,151.790 218.267,150.800 218.525 C 148.252 219.190,136.405 219.139,133.400 218.450 C 121.294 215.676,111.912 208.289,106.918 197.600 C 104.121 191.612,103.415 188.274,103.407 181.000 C 103.400 174.991,103.467 174.551,105.272 168.800 C 110.888 150.900,131.325 139.347,150.200 143.402 M187.505 159.131 L 187.610 174.461 189.562 173.028 C 199.167 165.977,214.017 169.136,218.964 179.282 C 220.851 183.152,220.945 183.970,221.178 198.400 C 221.419 213.362,221.484 213.810,223.680 215.643 C 226.196 217.742,225.355 218.032,217.109 217.909 C 210.065 217.804,209.796 217.770,209.682 216.973 C 209.603 216.420,209.880 216.001,210.518 215.710 C 214.060 214.096,214.513 188.591,211.130 181.316 C 206.445 171.242,191.210 172.914,188.072 183.846 C 187.753 184.961,187.600 189.694,187.600 198.498 C 187.600 212.867,187.712 213.635,190.093 215.643 C 192.596 217.753,191.765 218.032,183.342 217.909 C 174.963 217.787,174.817 217.726,177.156 215.339 C 179.321 213.131,179.257 214.277,179.120 180.361 C 178.992 148.631,179.043 149.412,177.112 149.124 C 174.342 148.710,175.457 146.873,179.145 145.774 C 180.385 145.404,182.300 144.778,183.400 144.382 C 184.500 143.986,185.850 143.693,186.400 143.731 L 187.400 143.800 187.505 159.131 M247.988 153.794 C 251.423 155.570,252.107 160.266,249.335 163.038 C 246.819 165.555,241.836 164.764,240.194 161.588 C 237.717 156.799,243.199 151.317,247.988 153.794 M92.715 163.838 C 92.860 167.904,94.769 166.738,75.072 174.614 C 65.871 178.293,58.491 181.431,58.672 181.588 C 58.852 181.744,59.630 182.099,60.400 182.376 C 62.200 183.025,63.161 183.393,64.400 183.910 C 64.950 184.139,69.180 185.800,73.800 187.600 C 82.201 190.873,83.042 191.205,85.100 192.054 C 85.705 192.303,86.650 192.684,87.200 192.900 C 87.750 193.116,88.513 193.452,88.895 193.647 C 89.277 193.841,89.789 194.000,90.033 194.000 C 91.954 194.000,92.833 195.618,92.716 198.938 L 92.600 202.200 91.400 202.151 C 90.740 202.123,89.300 201.697,88.200 201.204 C 84.867 199.709,83.966 199.331,79.600 197.600 C 77.290 196.684,74.770 195.661,74.000 195.326 C 73.230 194.992,72.240 194.575,71.800 194.400 C 71.360 194.225,70.370 193.808,69.600 193.473 C 68.830 193.138,66.760 192.295,65.000 191.600 C 63.240 190.905,61.170 190.062,60.400 189.727 C 59.630 189.392,58.595 188.957,58.100 188.759 C 57.605 188.562,56.795 188.219,56.300 187.998 C 55.805 187.777,53.870 186.984,52.000 186.236 L 48.600 184.875 48.600 181.364 L 48.600 177.853 53.400 175.928 C 56.040 174.870,58.650 173.799,59.200 173.548 C 59.750 173.298,60.560 172.955,61.000 172.787 C 61.440 172.619,62.430 172.208,63.200 171.874 C 63.970 171.539,66.490 170.516,68.800 169.600 C 71.110 168.684,73.630 167.661,74.400 167.326 C 75.170 166.992,76.160 166.575,76.600 166.400 C 77.040 166.225,78.030 165.809,78.800 165.475 C 79.570 165.141,82.360 164.016,85.000 162.975 C 87.640 161.934,89.979 160.921,90.197 160.724 C 91.675 159.391,92.598 160.532,92.715 163.838 M310.831 161.436 C 312.244 162.007,314.030 162.745,314.800 163.077 C 315.570 163.410,316.560 163.825,317.000 164.000 C 317.440 164.175,318.430 164.592,319.200 164.926 C 319.970 165.261,322.490 166.284,324.800 167.200 C 327.110 168.116,329.630 169.139,330.400 169.474 C 331.170 169.808,332.160 170.225,332.600 170.400 C 333.040 170.575,334.030 170.992,334.800 171.326 C 335.570 171.661,338.090 172.684,340.400 173.600 C 347.851 176.555,350.526 177.787,351.169 178.563 C 351.886 179.427,351.582 184.314,350.779 184.820 C 350.461 185.021,348.130 186.014,345.600 187.027 C 343.070 188.039,340.370 189.141,339.600 189.475 C 338.830 189.809,337.840 190.225,337.400 190.400 C 336.960 190.575,335.970 190.992,335.200 191.326 C 334.430 191.661,331.910 192.684,329.600 193.600 C 327.290 194.516,324.770 195.539,324.000 195.874 C 323.230 196.208,322.240 196.625,321.800 196.800 C 321.360 196.975,320.370 197.392,319.600 197.726 C 314.384 199.990,307.794 202.407,307.326 202.227 C 306.895 202.062,306.795 201.216,306.884 198.507 L 307.000 195.000 312.400 192.859 C 315.370 191.681,318.250 190.532,318.800 190.305 C 319.350 190.078,320.205 189.737,320.700 189.546 C 321.195 189.356,322.005 189.044,322.500 188.854 C 322.995 188.663,323.850 188.319,324.400 188.090 C 324.950 187.861,328.730 186.370,332.800 184.777 C 336.870 183.184,340.347 181.751,340.528 181.593 C 340.708 181.434,334.858 178.915,327.528 175.994 C 320.197 173.072,314.029 170.529,313.820 170.341 C 313.611 170.153,313.197 170.000,312.901 170.000 C 312.604 170.000,311.616 169.640,310.706 169.200 C 309.795 168.760,308.873 168.400,308.656 168.400 C 307.374 168.400,306.800 167.040,306.800 164.005 C 306.800 159.839,306.828 159.821,310.831 161.436 M250.800 190.805 C 251.017 214.003,250.990 213.731,253.280 215.643 C 255.748 217.702,254.937 218.000,246.862 218.000 C 239.332 218.000,237.792 217.656,239.417 216.335 C 242.707 213.661,242.800 213.082,242.800 195.243 C 242.800 177.230,242.462 174.859,239.887 174.813 C 237.800 174.775,238.805 172.772,241.294 172.008 C 242.232 171.720,244.440 170.987,246.200 170.380 C 247.960 169.773,249.670 169.307,250.000 169.344 C 250.522 169.402,250.626 172.183,250.800 190.805 " stroke="none" fill="#fcfbfb" fill-rule="evenodd"></path><path id="path2" d="M141.700 147.491 C 142.525 147.578,143.875 147.578,144.700 147.491 C 145.525 147.405,144.850 147.334,143.200 147.334 C 141.550 147.334,140.875 147.405,141.700 147.491 M156.600 152.000 C 157.459 152.880,158.252 153.600,158.362 153.600 C 158.472 153.600,157.859 152.880,157.000 152.000 C 156.141 151.120,155.348 150.400,155.238 150.400 C 155.128 150.400,155.741 151.120,156.600 152.000 M114.386 154.300 L 112.200 156.600 114.500 154.414 C 116.637 152.382,116.983 152.000,116.686 152.000 C 116.624 152.000,115.589 153.035,114.386 154.300 M179.790 182.000 C 179.790 198.170,179.839 204.785,179.900 196.700 C 179.960 188.615,179.960 175.385,179.900 167.300 C 179.839 159.215,179.790 165.830,179.790 182.000 M120.800 156.200 C 119.828 157.190,119.123 158.000,119.233 158.000 C 119.343 158.000,120.228 157.190,121.200 156.200 C 122.172 155.210,122.877 154.400,122.767 154.400 C 122.657 154.400,121.772 155.210,120.800 156.200 M250.501 159.000 C 250.505 159.880,250.587 160.193,250.683 159.695 C 250.779 159.198,250.775 158.478,250.675 158.095 C 250.575 157.713,250.496 158.120,250.501 159.000 M92.080 163.820 C 92.036 165.591,91.821 167.257,91.601 167.521 C 91.382 167.786,91.480 167.763,91.819 167.469 C 92.302 167.051,92.406 166.249,92.299 163.768 L 92.161 160.600 92.080 163.820 M215.200 175.000 C 215.946 175.770,216.647 176.400,216.757 176.400 C 216.867 176.400,216.346 175.770,215.600 175.000 C 214.854 174.230,214.153 173.600,214.043 173.600 C 213.933 173.600,214.454 174.230,215.200 175.000 M199.300 174.287 C 199.905 174.378,200.895 174.378,201.500 174.287 C 202.105 174.195,201.610 174.120,200.400 174.120 C 199.190 174.120,198.695 174.195,199.300 174.287 M103.693 178.400 C 103.693 179.170,103.775 179.485,103.876 179.100 C 103.976 178.715,103.976 178.085,103.876 177.700 C 103.775 177.315,103.693 177.630,103.693 178.400 M111.334 180.000 C 111.334 181.650,111.405 182.325,111.491 181.500 C 111.578 180.675,111.578 179.325,111.491 178.500 C 111.405 177.675,111.334 178.350,111.334 180.000 M242.983 195.000 C 242.983 204.240,243.036 207.963,243.100 203.273 C 243.164 198.583,243.164 191.023,243.099 186.473 C 243.035 181.923,242.983 185.760,242.983 195.000 M48.531 181.400 C 48.533 182.940,48.605 183.521,48.692 182.691 C 48.779 181.861,48.777 180.601,48.689 179.891 C 48.600 179.181,48.529 179.860,48.531 181.400 M350.795 181.482 C 350.688 183.067,350.744 184.219,350.921 184.041 C 351.097 183.864,351.185 182.567,351.116 181.159 L 350.991 178.600 350.795 181.482 M103.701 183.800 C 103.705 184.680,103.787 184.993,103.883 184.495 C 103.979 183.998,103.975 183.278,103.875 182.895 C 103.775 182.513,103.696 182.920,103.701 183.800 M92.137 198.600 C 92.139 200.360,92.209 201.030,92.293 200.089 C 92.378 199.149,92.377 197.709,92.291 196.889 C 92.205 196.070,92.136 196.840,92.137 198.600 M158.778 209.100 L 157.400 210.600 158.900 209.222 C 160.296 207.938,160.584 207.600,160.278 207.600 C 160.212 207.600,159.537 208.275,158.778 209.100 " stroke="none" fill="#fc9d98" fill-rule="evenodd"></path><path id="path3" d="M295.201 138.700 C 295.201 138.865,295.786 139.040,296.501 139.089 C 297.458 139.155,297.642 139.077,297.200 138.795 C 296.484 138.338,295.200 138.277,295.201 138.700 M137.400 143.617 C 136.668 143.814,137.369 143.853,139.200 143.718 C 140.850 143.596,142.275 143.429,142.367 143.348 C 142.677 143.072,138.608 143.293,137.400 143.617 M144.433 143.347 C 144.525 143.428,145.770 143.597,147.200 143.723 C 148.830 143.866,149.427 143.826,148.800 143.616 C 147.820 143.286,144.105 143.058,144.433 143.347 M132.600 144.400 L 131.800 144.744 132.600 144.744 C 133.040 144.744,133.760 144.589,134.200 144.400 L 135.000 144.056 134.200 144.056 C 133.760 144.056,133.040 144.211,132.600 144.400 M151.400 144.400 C 151.840 144.589,152.470 144.744,152.800 144.744 C 153.178 144.744,153.104 144.617,152.600 144.400 C 152.160 144.211,151.530 144.056,151.200 144.056 C 150.822 144.056,150.896 144.183,151.400 144.400 M185.200 144.418 C 184.762 144.715,184.924 144.752,185.800 144.556 C 187.271 144.227,187.590 143.998,186.567 144.006 C 186.145 144.009,185.530 144.195,185.200 144.418 M129.600 145.200 C 129.067 145.545,129.067 145.588,129.600 145.588 C 129.930 145.588,130.470 145.413,130.800 145.200 C 131.333 144.855,131.333 144.812,130.800 144.812 C 130.470 144.812,129.930 144.987,129.600 145.200 M182.400 145.200 C 181.867 145.545,181.867 145.588,182.400 145.588 C 182.730 145.588,183.270 145.413,183.600 145.200 C 184.133 144.855,184.133 144.812,183.600 144.812 C 183.270 144.812,182.730 144.987,182.400 145.200 M157.400 146.000 C 157.840 146.189,158.470 146.344,158.800 146.344 C 159.178 146.344,159.104 146.217,158.600 146.000 C 158.160 145.811,157.530 145.656,157.200 145.656 C 156.822 145.656,156.896 145.783,157.400 146.000 M123.178 148.018 C 121.517 148.894,119.537 150.168,118.778 150.848 L 117.400 152.086 118.905 151.019 C 119.733 150.432,121.893 149.156,123.705 148.183 C 125.517 147.209,126.820 146.416,126.600 146.419 C 126.380 146.422,124.840 147.142,123.178 148.018 M137.000 147.620 C 136.461 147.865,136.854 147.905,138.200 147.741 C 139.300 147.607,140.275 147.431,140.367 147.349 C 140.717 147.036,137.761 147.274,137.000 147.620 M146.033 147.347 C 146.125 147.428,146.920 147.614,147.800 147.762 C 148.946 147.954,149.230 147.914,148.800 147.621 C 148.260 147.253,145.632 146.993,146.033 147.347 M176.000 147.744 C 176.000 148.364,177.475 149.058,177.897 148.637 C 178.027 148.506,177.936 148.400,177.695 148.400 C 177.454 148.400,176.974 148.117,176.629 147.771 C 176.081 147.224,176.000 147.220,176.000 147.744 M150.800 148.400 C 151.130 148.613,151.670 148.788,152.000 148.788 C 152.533 148.788,152.533 148.745,152.000 148.400 C 151.670 148.187,151.130 148.012,150.800 148.012 C 150.267 148.012,150.267 148.055,150.800 148.400 M179.246 150.400 C 179.265 150.730,179.424 151.450,179.600 152.000 L 179.920 153.000 179.954 152.000 C 179.973 151.450,179.813 150.730,179.600 150.400 C 179.255 149.867,179.216 149.867,179.246 150.400 M127.100 151.029 C 125.605 151.840,125.696 152.178,127.200 151.400 C 127.860 151.059,128.400 150.694,128.400 150.590 C 128.400 150.332,128.357 150.347,127.100 151.029 M156.800 151.800 C 157.546 152.570,158.247 153.200,158.357 153.200 C 158.467 153.200,157.946 152.570,157.200 151.800 C 156.454 151.030,155.753 150.400,155.643 150.400 C 155.533 150.400,156.054 151.030,156.800 151.800 M114.150 154.900 C 112.594 156.495,110.921 158.430,110.433 159.200 L 109.546 160.600 110.669 159.200 C 111.286 158.430,113.039 156.495,114.563 154.900 C 116.088 153.305,117.255 152.000,117.158 152.000 C 117.060 152.000,115.706 153.305,114.150 154.900 M120.360 156.397 C 118.402 158.376,116.802 160.221,116.804 160.497 C 116.807 160.774,117.284 160.370,117.865 159.600 C 118.446 158.830,120.176 156.985,121.710 155.500 C 123.243 154.015,124.367 152.800,124.208 152.800 C 124.049 152.800,122.318 154.419,120.360 156.397 M159.078 154.995 C 159.444 155.762,159.814 156.319,159.901 156.232 C 160.084 156.049,158.870 153.600,158.596 153.600 C 158.495 153.600,158.712 154.228,159.078 154.995 M243.600 154.006 C 243.171 154.287,243.360 154.330,244.264 154.157 C 246.043 153.816,248.203 154.637,249.449 156.129 C 250.178 157.002,250.324 157.087,249.914 156.400 C 248.596 154.188,245.254 152.921,243.600 154.006 M240.243 157.433 C 239.912 158.295,239.947 160.098,240.306 160.662 C 240.468 160.916,240.600 160.151,240.600 158.962 C 240.600 156.571,240.590 156.528,240.243 157.433 M249.289 161.917 L 248.379 163.400 249.389 162.278 C 249.945 161.660,250.400 160.985,250.400 160.778 C 250.400 160.190,250.265 160.328,249.289 161.917 M242.087 162.900 C 242.706 163.505,243.435 163.995,243.706 163.988 C 243.978 163.981,243.840 163.777,243.400 163.533 C 242.960 163.290,242.231 162.800,241.781 162.445 C 241.330 162.090,241.468 162.295,242.087 162.900 M107.781 163.637 C 107.429 164.318,107.212 164.945,107.299 165.032 C 107.386 165.119,107.756 164.562,108.122 163.795 C 108.944 162.070,108.659 161.938,107.781 163.637 M285.800 164.000 C 285.650 164.473,285.617 164.950,285.727 165.060 C 285.837 165.170,286.050 164.873,286.200 164.400 C 286.350 163.927,286.383 163.450,286.273 163.340 C 286.163 163.230,285.950 163.527,285.800 164.000 M114.255 165.055 C 113.876 165.849,113.653 166.586,113.759 166.693 C 113.866 166.799,114.236 166.209,114.582 165.382 C 115.398 163.429,115.149 163.180,114.255 165.055 M90.800 167.400 C 90.112 167.793,90.003 167.976,90.451 167.986 C 90.809 167.994,91.326 167.730,91.600 167.400 C 92.209 166.666,92.084 166.666,90.800 167.400 M198.077 169.940 C 197.570 170.083,199.190 170.205,201.677 170.210 C 204.165 170.216,205.660 170.102,205.000 169.957 C 203.444 169.617,199.261 169.606,198.077 169.940 M112.200 170.800 C 112.050 171.273,112.017 171.750,112.127 171.860 C 112.237 171.970,112.450 171.673,112.600 171.200 C 112.750 170.727,112.783 170.250,112.673 170.140 C 112.563 170.030,112.350 170.327,112.200 170.800 M192.300 171.829 C 190.749 172.670,190.925 172.961,192.500 172.159 C 194.008 171.393,194.275 171.194,193.767 171.216 C 193.565 171.225,192.905 171.501,192.300 171.829 M212.000 172.681 C 212.550 173.075,213.900 174.202,215.000 175.184 L 217.000 176.971 215.303 175.174 C 214.370 174.185,213.020 173.059,212.303 172.671 C 211.044 171.989,211.034 171.990,212.000 172.681 M239.460 173.387 C 239.226 173.998,239.873 174.660,240.293 174.240 C 240.425 174.108,240.301 174.000,240.018 174.000 C 239.605 174.000,239.601 173.881,240.000 173.400 C 240.287 173.054,240.326 172.800,240.092 172.800 C 239.868 172.800,239.584 173.064,239.460 173.387 M104.256 174.084 C 104.121 174.588,104.027 175.360,104.046 175.800 C 104.065 176.240,104.245 175.898,104.446 175.040 C 104.836 173.378,104.670 172.540,104.256 174.084 M111.469 174.356 C 111.321 175.095,111.220 176.083,111.244 176.550 C 111.268 177.018,111.447 176.590,111.642 175.600 C 111.837 174.610,111.938 173.623,111.867 173.406 C 111.796 173.190,111.617 173.617,111.469 174.356 M188.278 174.613 C 187.660 175.156,187.314 175.600,187.508 175.600 C 187.702 175.600,188.283 175.150,188.800 174.600 C 189.995 173.328,189.731 173.334,188.278 174.613 M197.915 173.928 C 197.538 174.078,198.656 174.200,200.400 174.200 C 202.144 174.200,203.262 174.078,202.885 173.928 C 202.508 173.779,201.390 173.656,200.400 173.656 C 199.410 173.656,198.292 173.779,197.915 173.928 M241.681 175.000 C 242.039 175.440,242.527 176.430,242.765 177.200 L 243.197 178.600 242.989 177.201 C 242.874 176.432,242.387 175.442,241.905 175.001 C 241.033 174.203,241.032 174.203,241.681 175.000 M193.400 175.664 C 192.325 176.255,189.633 178.823,189.138 179.730 C 188.919 180.131,189.608 179.582,190.670 178.509 C 191.731 177.436,193.050 176.262,193.600 175.900 C 194.735 175.153,194.606 175.001,193.400 175.664 M208.715 177.500 C 209.972 178.765,211.228 180.160,211.506 180.600 C 211.784 181.040,211.755 180.854,211.441 180.187 C 210.936 179.116,207.161 175.200,206.632 175.200 C 206.521 175.200,207.458 176.235,208.715 177.500 M349.511 178.223 C 350.529 178.936,350.829 183.411,349.920 184.320 C 349.599 184.641,349.585 184.800,349.877 184.800 C 351.788 184.800,350.929 177.675,349.011 177.613 C 348.797 177.606,349.022 177.880,349.511 178.223 M218.278 179.795 C 218.644 180.562,219.014 181.119,219.101 181.032 C 219.284 180.849,218.070 178.400,217.796 178.400 C 217.695 178.400,217.912 179.028,218.278 179.795 M103.701 181.000 C 103.705 181.880,103.787 182.193,103.883 181.695 C 103.979 181.198,103.975 180.478,103.875 180.095 C 103.775 179.713,103.696 180.120,103.701 181.000 M56.800 181.029 C 56.800 181.327,57.875 182.400,58.175 182.400 C 58.302 182.400,58.182 182.040,57.907 181.600 C 57.438 180.849,56.800 180.520,56.800 181.029 M341.785 181.175 C 341.912 181.382,341.698 181.736,341.308 181.963 C 340.919 182.190,340.789 182.381,341.020 182.388 C 341.510 182.402,342.400 181.585,342.400 181.120 C 342.400 180.944,342.209 180.800,341.976 180.800 C 341.743 180.800,341.657 180.969,341.785 181.175 M111.287 183.800 C 111.283 184.460,111.424 185.450,111.600 186.000 L 111.920 187.000 111.913 186.000 C 111.909 185.450,111.768 184.460,111.600 183.800 L 111.295 182.600 111.287 183.800 M212.868 184.400 C 212.888 185.439,213.518 187.146,213.532 186.200 C 213.538 185.760,213.389 185.040,213.200 184.600 C 212.989 184.110,212.861 184.032,212.868 184.400 M220.262 185.800 C 220.396 186.680,220.572 187.475,220.653 187.567 C 220.956 187.910,220.729 185.768,220.381 185.000 C 220.129 184.442,220.093 184.685,220.262 185.800 M104.068 186.800 C 104.062 187.350,104.211 188.160,104.400 188.600 L 104.744 189.400 104.732 188.600 C 104.726 188.160,104.576 187.350,104.400 186.800 L 104.080 185.800 104.068 186.800 M112.056 188.000 C 112.056 188.330,112.211 188.960,112.400 189.400 C 112.617 189.904,112.744 189.978,112.744 189.600 C 112.744 189.270,112.589 188.640,112.400 188.200 C 112.183 187.696,112.056 187.622,112.056 188.000 M104.834 190.600 C 104.822 191.040,104.987 191.670,105.200 192.000 C 105.714 192.795,105.714 191.796,105.200 190.600 L 104.856 189.800 104.834 190.600 M112.812 190.800 C 112.812 191.130,112.987 191.670,113.200 192.000 C 113.545 192.533,113.588 192.533,113.588 192.000 C 113.588 191.670,113.413 191.130,113.200 190.800 C 112.855 190.267,112.812 190.267,112.812 190.800 M116.000 197.761 C 116.000 198.182,118.326 201.507,118.845 201.828 C 119.084 201.976,118.615 201.130,117.804 199.948 C 116.128 197.508,116.000 197.354,116.000 197.761 M83.600 198.589 C 83.600 198.906,86.500 200.033,86.728 199.805 C 86.841 199.692,86.835 199.600,86.716 199.600 C 86.596 199.600,85.846 199.328,85.049 198.995 C 84.252 198.662,83.600 198.479,83.600 198.589 M272.200 200.800 C 272.050 201.273,272.017 201.750,272.127 201.860 C 272.237 201.970,272.450 201.673,272.600 201.200 C 272.750 200.727,272.783 200.250,272.673 200.140 C 272.563 200.030,272.350 200.327,272.200 200.800 M121.015 204.432 C 122.107 205.550,123.720 207.030,124.600 207.722 C 125.480 208.413,124.670 207.500,122.800 205.693 C 119.029 202.048,117.924 201.267,121.015 204.432 M111.191 203.988 C 111.657 204.641,112.242 205.302,112.491 205.456 C 112.741 205.611,112.441 205.076,111.825 204.268 C 110.488 202.515,109.984 202.292,111.191 203.988 M161.000 206.528 C 159.960 208.296,157.578 210.576,154.964 212.306 C 154.544 212.584,154.806 212.524,155.546 212.172 C 158.029 210.992,163.122 205.343,162.349 204.626 C 162.267 204.550,161.660 205.406,161.000 206.528 M114.383 207.700 C 116.041 209.466,116.400 209.784,116.400 209.483 C 116.400 209.419,115.545 208.564,114.500 207.583 L 112.600 205.800 114.383 207.700 M116.940 209.903 C 117.096 210.156,117.791 210.767,118.484 211.260 C 119.177 211.754,119.617 211.950,119.460 211.697 C 119.304 211.444,118.609 210.833,117.916 210.340 C 117.223 209.846,116.783 209.650,116.940 209.903 M128.800 210.560 C 128.800 210.896,132.847 212.886,133.073 212.660 C 133.179 212.554,132.397 212.056,131.333 211.554 C 130.270 211.052,129.265 210.572,129.100 210.487 C 128.935 210.403,128.800 210.435,128.800 210.560 M179.646 211.667 C 179.621 212.034,179.496 212.664,179.370 213.067 C 179.152 213.762,179.163 213.763,179.597 213.087 C 179.848 212.696,179.973 212.066,179.873 211.687 C 179.711 211.068,179.688 211.066,179.646 211.667 M242.629 212.629 C 242.481 213.215,242.438 213.772,242.532 213.866 C 242.627 213.960,242.824 213.558,242.971 212.971 C 243.119 212.385,243.162 211.828,243.068 211.734 C 242.973 211.640,242.776 212.042,242.629 212.629 M120.600 212.596 C 121.494 213.339,124.028 214.709,123.400 214.110 C 123.180 213.900,122.280 213.324,121.400 212.830 C 120.520 212.335,120.160 212.230,120.600 212.596 M136.800 214.000 C 137.130 214.213,137.760 214.378,138.200 214.366 L 139.000 214.344 138.200 214.000 C 137.004 213.486,136.005 213.486,136.800 214.000 M177.700 215.416 C 176.379 216.799,176.058 217.600,176.824 217.600 C 177.057 217.600,177.151 217.444,177.033 217.253 C 176.915 217.063,177.191 216.570,177.646 216.158 C 178.364 215.509,179.438 213.949,179.114 214.027 C 179.051 214.043,178.415 214.667,177.700 215.416 M271.400 214.800 C 271.250 215.273,271.217 215.750,271.327 215.860 C 271.437 215.970,271.650 215.673,271.800 215.200 C 271.950 214.727,271.983 214.250,271.873 214.140 C 271.763 214.030,271.550 214.327,271.400 214.800 M142.370 214.774 C 143.563 214.918,145.273 214.915,146.170 214.768 C 147.294 214.583,146.620 214.502,144.000 214.506 C 140.844 214.512,140.568 214.557,142.370 214.774 M211.278 215.719 C 209.941 217.099,209.713 217.600,210.424 217.600 C 210.657 217.600,210.744 217.432,210.617 217.227 C 210.490 217.022,210.705 216.617,211.093 216.327 C 211.855 215.759,213.007 214.400,212.727 214.400 C 212.634 214.400,211.982 214.994,211.278 215.719 M240.878 215.719 C 239.541 217.099,239.313 217.600,240.024 217.600 C 240.257 217.600,240.344 217.432,240.217 217.227 C 240.090 217.022,240.305 216.617,240.693 216.327 C 241.455 215.759,242.607 214.400,242.327 214.400 C 242.234 214.400,241.582 214.994,240.878 215.719 M159.400 215.600 L 158.600 215.944 159.400 215.944 C 159.840 215.944,160.560 215.789,161.000 215.600 L 161.800 215.256 161.000 215.256 C 160.560 215.256,159.840 215.411,159.400 215.600 M156.200 216.400 C 155.696 216.617,155.622 216.744,156.000 216.744 C 156.330 216.744,156.960 216.589,157.400 216.400 C 157.904 216.183,157.978 216.056,157.600 216.056 C 157.270 216.056,156.640 216.211,156.200 216.400 M130.400 217.200 C 130.730 217.413,131.360 217.578,131.800 217.566 L 132.600 217.544 131.800 217.200 C 130.604 216.686,129.605 216.686,130.400 217.200 M153.000 217.200 C 152.496 217.417,152.422 217.544,152.800 217.544 C 153.130 217.544,153.760 217.389,154.200 217.200 C 154.704 216.983,154.778 216.856,154.400 216.856 C 154.070 216.856,153.440 217.011,153.000 217.200 M134.000 218.000 C 134.550 218.176,135.360 218.320,135.800 218.320 C 136.433 218.320,136.392 218.254,135.600 218.000 C 135.050 217.824,134.240 217.680,133.800 217.680 C 133.167 217.680,133.208 217.746,134.000 218.000 M148.800 218.000 L 147.800 218.320 148.800 218.332 C 149.350 218.338,150.160 218.189,150.600 218.000 L 151.400 217.656 150.600 217.668 C 150.160 217.674,149.350 217.824,148.800 218.000 M140.900 218.691 C 141.725 218.778,143.075 218.778,143.900 218.691 C 144.725 218.605,144.050 218.534,142.400 218.534 C 140.750 218.534,140.075 218.605,140.900 218.691 M264.400 222.536 C 264.400 223.103,266.353 224.181,266.718 223.815 C 266.837 223.697,266.723 223.600,266.467 223.600 C 266.210 223.600,265.640 223.240,265.200 222.800 C 264.663 222.263,264.400 222.176,264.400 222.536 " stroke="none" fill="#fc827c" fill-rule="evenodd"></path><path id="path4" d="M294.610 139.180 C 294.275 139.829,294.009 140.594,294.021 140.880 C 294.032 141.166,294.329 140.706,294.680 139.857 C 295.289 138.389,295.389 138.326,296.760 138.546 C 297.756 138.706,298.015 138.659,297.600 138.395 C 296.427 137.647,295.242 137.958,294.610 139.180 M293.352 142.300 C 293.230 142.685,292.785 143.879,292.365 144.953 C 291.944 146.028,291.610 147.108,291.622 147.353 C 291.646 147.841,293.091 144.471,293.617 142.700 C 293.970 141.514,293.721 141.139,293.352 142.300 M140.082 143.096 C 141.558 143.173,144.078 143.173,145.682 143.097 C 147.287 143.021,146.080 142.958,143.000 142.958 C 139.920 142.957,138.607 143.019,140.082 143.096 M131.400 144.246 C 129.830 144.798,129.826 144.804,131.200 144.559 C 134.632 143.949,135.515 143.692,134.200 143.688 C 133.540 143.686,132.280 143.937,131.400 144.246 M184.800 143.985 C 184.379 144.260,184.647 144.305,185.700 144.136 L 187.200 143.895 187.200 159.348 C 187.200 174.419,187.298 175.571,188.451 174.100 C 188.948 173.467,188.934 173.452,188.305 173.945 C 187.648 174.460,187.604 173.653,187.505 159.145 L 187.400 143.800 186.400 143.696 C 185.850 143.639,185.130 143.769,184.800 143.985 M154.033 144.544 C 154.125 144.623,154.740 144.808,155.400 144.956 C 156.276 145.152,156.438 145.115,156.000 144.818 C 155.460 144.453,153.632 144.198,154.033 144.544 M297.291 146.100 C 296.610 147.984,296.704 148.494,297.426 146.830 C 297.753 146.077,297.966 145.299,297.901 145.102 C 297.835 144.905,297.560 145.354,297.291 146.100 M126.500 145.834 C 125.785 146.146,125.200 146.490,125.200 146.598 C 125.200 146.776,128.376 145.651,128.767 145.335 C 129.195 144.988,127.662 145.326,126.500 145.834 M179.600 145.618 C 179.162 145.915,179.324 145.952,180.200 145.756 C 181.671 145.427,181.990 145.198,180.967 145.206 C 180.545 145.209,179.930 145.395,179.600 145.618 M161.190 146.263 C 161.925 146.628,161.728 158.800,160.987 158.800 C 160.650 158.800,160.211 158.395,160.012 157.900 C 159.768 157.291,159.643 157.210,159.625 157.651 C 159.591 158.521,160.639 159.347,161.405 159.053 C 162.232 158.736,162.121 146.331,161.290 146.163 C 161.010 146.106,160.965 146.151,161.190 146.263 M175.743 147.405 C 175.448 148.173,176.282 149.200,177.200 149.200 C 178.008 149.200,178.629 149.853,178.911 151.000 C 179.100 151.770,179.109 151.768,179.154 150.962 C 179.206 150.012,178.189 148.957,177.000 148.729 C 176.473 148.628,176.211 148.272,176.232 147.688 C 176.269 146.656,176.073 146.544,175.743 147.405 M121.600 148.436 C 120.936 148.979,120.869 149.115,121.400 148.840 C 122.705 148.166,123.428 147.612,123.000 147.615 C 122.780 147.617,122.150 147.986,121.600 148.436 M139.900 147.882 C 140.395 147.978,141.205 147.978,141.700 147.882 C 142.195 147.787,141.790 147.709,140.800 147.709 C 139.810 147.709,139.405 147.787,139.900 147.882 M144.900 147.876 C 145.285 147.976,145.915 147.976,146.300 147.876 C 146.685 147.775,146.370 147.693,145.600 147.693 C 144.830 147.693,144.515 147.775,144.900 147.876 M136.300 148.282 C 136.795 148.378,137.605 148.378,138.100 148.282 C 138.595 148.187,138.190 148.109,137.200 148.109 C 136.210 148.109,135.805 148.187,136.300 148.282 M147.700 148.276 C 148.085 148.376,148.715 148.376,149.100 148.276 C 149.485 148.175,149.170 148.093,148.400 148.093 C 147.630 148.093,147.315 148.175,147.700 148.276 M290.491 150.100 C 289.810 151.984,289.904 152.494,290.626 150.830 C 290.953 150.077,291.166 149.299,291.101 149.102 C 291.035 148.905,290.760 149.354,290.491 150.100 M152.400 149.419 C 152.400 149.498,153.033 149.863,153.807 150.230 C 154.581 150.597,156.048 151.821,157.068 152.949 C 158.087 154.077,158.719 154.616,158.472 154.147 C 157.564 152.425,152.400 148.404,152.400 149.419 M295.477 151.077 C 295.100 152.093,294.858 152.991,294.938 153.072 C 295.019 153.152,295.400 152.393,295.785 151.385 C 296.170 150.376,296.412 149.479,296.323 149.390 C 296.235 149.301,295.854 150.060,295.477 151.077 M115.071 153.300 L 112.534 155.800 114.967 153.627 C 116.305 152.432,117.571 151.307,117.780 151.127 C 117.989 150.947,118.036 150.800,117.884 150.800 C 117.732 150.800,116.466 151.925,115.071 153.300 M124.995 152.944 C 122.828 154.404,117.919 159.405,117.201 160.883 C 116.904 161.496,117.057 161.402,117.665 160.600 C 119.525 158.144,123.383 154.366,125.261 153.161 C 126.935 152.087,127.507 151.600,127.095 151.600 C 127.037 151.600,126.092 152.205,124.995 152.944 M179.297 181.603 C 179.199 211.601,179.119 213.284,177.710 214.983 C 177.319 215.454,177.482 215.346,178.072 214.745 C 179.638 213.146,179.644 212.996,179.514 181.000 L 179.395 151.800 179.297 181.603 M242.496 153.998 C 238.878 156.204,238.618 161.192,241.996 163.597 C 242.661 164.071,243.519 164.376,243.902 164.275 C 244.552 164.105,244.551 164.090,243.886 164.046 C 241.837 163.913,239.999 161.487,240.001 158.920 C 240.007 153.411,247.694 151.533,250.116 156.449 C 250.482 157.192,250.786 157.558,250.791 157.262 C 250.841 154.273,245.496 152.169,242.496 153.998 M109.600 159.600 C 109.130 160.260,108.836 160.800,108.946 160.800 C 109.056 160.800,109.530 160.260,110.000 159.600 C 110.470 158.940,110.764 158.400,110.654 158.400 C 110.544 158.400,110.070 158.940,109.600 159.600 M286.491 160.900 C 285.810 162.784,285.904 163.294,286.626 161.630 C 286.953 160.877,287.166 160.099,287.101 159.902 C 287.035 159.705,286.760 160.154,286.491 160.900 M291.691 161.300 C 291.010 163.184,291.104 163.694,291.826 162.030 C 292.153 161.277,292.366 160.499,292.301 160.302 C 292.235 160.105,291.960 160.554,291.691 161.300 M90.259 160.705 C 90.140 160.897,90.573 160.977,91.221 160.882 L 92.400 160.709 92.400 163.875 C 92.400 165.841,92.211 167.252,91.900 167.601 C 91.473 168.079,91.505 168.082,92.115 167.619 C 93.422 166.628,92.938 160.639,91.538 160.477 C 90.954 160.409,90.378 160.512,90.259 160.705 M250.400 160.969 C 250.400 161.779,248.162 163.913,247.097 164.118 L 246.200 164.291 247.087 164.346 C 248.073 164.406,250.800 161.940,250.800 160.987 C 250.800 160.664,250.710 160.400,250.600 160.400 C 250.490 160.400,250.400 160.656,250.400 160.969 M307.067 160.667 C 305.714 162.019,307.174 168.411,308.831 168.394 C 309.144 168.391,308.950 168.161,308.400 167.884 C 307.470 167.414,307.392 167.146,307.283 164.036 L 307.166 160.693 308.483 160.946 C 309.417 161.125,309.625 161.084,309.200 160.806 C 308.505 160.350,307.452 160.281,307.067 160.667 M310.415 161.542 C 311.332 162.142,315.464 163.716,315.000 163.289 C 314.640 162.957,311.933 161.802,310.400 161.326 C 309.892 161.168,309.894 161.201,310.415 161.542 M85.000 163.014 C 83.995 163.498,83.963 163.553,84.800 163.351 C 85.350 163.219,85.971 162.950,86.180 162.755 C 86.698 162.271,86.414 162.333,85.000 163.014 M80.923 164.545 C 79.781 165.027,78.701 165.566,78.523 165.744 C 78.178 166.089,82.153 164.589,83.185 163.985 C 84.280 163.343,83.054 163.647,80.923 164.545 M284.891 165.300 C 284.210 167.184,284.304 167.694,285.026 166.030 C 285.353 165.277,285.566 164.499,285.501 164.302 C 285.435 164.105,285.160 164.554,284.891 165.300 M289.856 166.281 C 288.718 169.268,288.408 170.442,288.826 170.184 C 289.032 170.057,289.200 169.708,289.200 169.410 C 289.200 169.111,289.566 168.013,290.013 166.971 C 290.459 165.928,290.772 164.915,290.706 164.718 C 290.641 164.522,290.258 165.225,289.856 166.281 M325.000 167.564 C 327.384 168.717,331.058 170.111,330.600 169.688 C 330.223 169.340,325.298 167.297,324.000 166.950 C 323.670 166.862,324.120 167.138,325.000 167.564 M309.600 168.614 C 309.600 168.893,312.506 170.031,312.891 169.903 C 313.082 169.839,312.420 169.484,311.419 169.113 C 310.419 168.742,309.600 168.517,309.600 168.614 M66.323 170.546 C 64.631 171.247,63.101 171.966,62.923 172.144 C 62.576 172.491,65.976 171.209,68.600 170.003 C 71.232 168.793,69.633 169.175,66.323 170.546 M199.712 169.495 C 200.764 169.577,202.384 169.576,203.312 169.492 C 204.240 169.408,203.380 169.341,201.400 169.342 C 199.420 169.343,198.660 169.412,199.712 169.495 M247.678 169.891 C 246.731 170.220,246.033 170.566,246.127 170.660 C 246.221 170.754,247.086 170.557,248.049 170.221 C 249.012 169.886,249.933 169.609,250.096 169.606 C 250.259 169.603,250.442 178.825,250.502 190.100 L 250.611 210.600 250.605 190.005 C 250.599 167.021,250.856 168.786,247.678 169.891 M104.649 170.215 C 104.512 170.573,104.418 171.256,104.441 171.733 C 104.467 172.281,104.603 172.086,104.810 171.203 C 105.160 169.716,105.065 169.133,104.649 170.215 M112.846 170.467 C 112.821 170.834,112.696 171.464,112.570 171.867 C 112.352 172.562,112.363 172.563,112.797 171.887 C 113.048 171.496,113.173 170.866,113.073 170.487 C 112.911 169.868,112.888 169.866,112.846 170.467 M194.400 170.418 C 193.962 170.715,194.124 170.752,195.000 170.556 C 196.471 170.227,196.790 169.998,195.767 170.006 C 195.345 170.009,194.730 170.195,194.400 170.418 M313.800 170.310 C 314.020 170.515,320.197 173.072,327.528 175.994 C 334.858 178.915,340.708 181.437,340.528 181.598 C 340.347 181.759,338.894 182.394,337.298 183.010 C 335.701 183.625,334.465 184.198,334.550 184.283 C 334.823 184.557,341.403 181.766,341.327 181.409 C 341.287 181.219,335.797 178.880,329.127 176.212 C 312.740 169.657,313.349 169.891,313.800 170.310 M282.491 171.700 C 281.810 173.584,281.904 174.094,282.626 172.430 C 282.953 171.677,283.166 170.899,283.101 170.702 C 283.035 170.505,282.760 170.954,282.491 171.700 M191.078 171.991 C 190.045 172.646,189.200 173.298,189.200 173.440 C 189.200 173.582,189.426 173.511,189.702 173.282 C 189.977 173.053,191.012 172.403,192.002 171.838 C 192.991 171.272,193.610 170.807,193.378 170.805 C 193.146 170.802,192.111 171.336,191.078 171.991 M211.824 172.227 C 215.809 174.620,218.043 177.329,219.601 181.659 C 220.025 182.837,220.378 183.466,220.386 183.057 C 220.451 179.665,212.840 170.800,209.862 170.800 C 209.634 170.800,210.516 171.442,211.824 172.227 M240.400 172.323 C 238.957 173.029,238.431 174.547,239.600 174.633 C 239.991 174.662,240.018 174.617,239.677 174.505 C 238.583 174.144,239.474 173.027,241.400 172.343 C 242.500 171.953,243.040 171.634,242.600 171.636 C 242.160 171.637,241.170 171.946,240.400 172.323 M103.849 173.415 C 103.712 173.773,103.625 174.816,103.656 175.733 C 103.709 177.301,103.729 177.270,103.992 175.200 C 104.290 172.855,104.251 172.368,103.849 173.415 M112.109 174.400 C 112.109 175.390,112.187 175.795,112.282 175.300 C 112.378 174.805,112.378 173.995,112.282 173.500 C 112.187 173.005,112.109 173.410,112.109 174.400 M338.600 173.111 C 338.820 173.314,339.810 173.795,340.800 174.181 C 341.790 174.567,343.500 175.236,344.600 175.670 C 345.700 176.103,346.420 176.291,346.200 176.089 C 345.980 175.886,344.990 175.405,344.000 175.019 C 343.010 174.633,341.300 173.964,340.200 173.530 C 339.100 173.097,338.380 172.909,338.600 173.111 M197.505 174.683 C 198.002 174.779,198.722 174.775,199.105 174.675 C 199.487 174.575,199.080 174.496,198.200 174.501 C 197.320 174.505,197.007 174.587,197.505 174.683 M202.600 174.791 C 203.480 174.951,204.695 175.284,205.300 175.531 C 205.905 175.778,206.400 175.897,206.400 175.795 C 206.400 175.374,203.409 174.404,202.251 174.450 C 201.101 174.496,201.129 174.524,202.600 174.791 M52.228 176.349 C 50.264 177.163,48.585 178.093,48.498 178.415 C 48.390 178.811,48.446 178.851,48.670 178.539 C 48.851 178.285,50.665 177.411,52.700 176.597 C 54.735 175.782,56.400 175.045,56.400 174.958 C 56.400 174.667,55.819 174.861,52.228 176.349 M286.091 176.500 C 285.410 178.384,285.504 178.894,286.226 177.230 C 286.553 176.477,286.766 175.699,286.701 175.502 C 286.635 175.305,286.360 175.754,286.091 176.500 M206.800 176.106 C 206.800 176.194,207.565 176.874,208.500 177.617 C 209.435 178.360,209.946 178.652,209.636 178.265 C 209.051 177.537,206.800 175.823,206.800 176.106 M111.693 177.600 C 111.693 178.370,111.775 178.685,111.876 178.300 C 111.976 177.915,111.976 177.285,111.876 176.900 C 111.775 176.515,111.693 176.830,111.693 177.600 M65.200 178.200 C 63.894 178.947,64.351 178.955,66.054 178.216 C 66.794 177.894,67.130 177.631,66.800 177.630 C 66.470 177.629,65.750 177.886,65.200 178.200 M103.342 181.000 C 103.341 182.980,103.408 183.840,103.492 182.912 C 103.576 181.984,103.577 180.364,103.495 179.312 C 103.412 178.260,103.343 179.020,103.342 181.000 M350.477 178.206 C 350.896 178.706,351.211 179.925,351.302 181.406 L 351.449 183.800 351.524 181.362 C 351.589 179.273,351.471 178.815,350.700 178.162 C 349.806 177.405,349.804 177.405,350.477 178.206 M279.752 179.100 C 279.630 179.485,279.185 180.679,278.765 181.753 C 278.344 182.828,278.010 183.908,278.022 184.153 C 278.046 184.641,279.491 181.271,280.017 179.500 C 280.370 178.314,280.121 177.939,279.752 179.100 M61.800 179.578 C 60.920 179.995,60.380 180.336,60.600 180.338 C 61.146 180.342,64.302 178.864,63.800 178.840 C 63.580 178.830,62.680 179.162,61.800 179.578 M284.256 181.481 C 283.118 184.468,282.808 185.642,283.226 185.384 C 283.432 185.257,283.600 184.908,283.600 184.610 C 283.600 184.311,283.966 183.213,284.413 182.171 C 284.859 181.128,285.172 180.115,285.106 179.918 C 285.041 179.722,284.658 180.425,284.256 181.481 M58.700 180.676 C 57.530 180.981,58.279 182.428,59.580 182.375 C 59.921 182.361,59.750 182.168,59.200 181.947 L 58.200 181.544 59.200 180.986 C 60.196 180.431,60.031 180.328,58.700 180.676 M111.866 184.000 C 111.988 185.650,112.241 187.270,112.427 187.600 C 112.778 188.223,112.690 187.291,112.009 183.200 C 111.673 181.177,111.661 181.241,111.866 184.000 M211.764 182.700 C 212.070 183.525,212.506 185.010,212.732 186.000 L 213.143 187.800 212.912 185.807 C 212.692 183.903,211.803 181.200,211.398 181.200 C 211.293 181.200,211.457 181.875,211.764 182.700 M48.406 184.295 C 48.400 184.767,51.159 186.174,51.474 185.859 C 51.558 185.776,51.035 185.469,50.313 185.177 C 49.591 184.884,48.868 184.455,48.706 184.223 C 48.511 183.942,48.410 183.967,48.406 184.295 M220.703 194.137 C 220.760 199.672,220.858 205.820,220.920 207.800 C 220.983 209.780,221.069 205.460,221.111 198.200 C 221.153 190.940,221.056 184.792,220.894 184.537 C 220.732 184.282,220.646 188.602,220.703 194.137 M350.645 184.327 C 350.515 184.537,348.510 185.472,346.189 186.405 C 343.867 187.338,342.038 188.171,342.124 188.257 C 342.290 188.423,350.711 185.022,351.102 184.631 C 351.229 184.504,351.231 184.298,351.107 184.173 C 350.982 184.049,350.774 184.118,350.645 184.327 M69.382 186.218 C 71.793 187.198,73.953 187.992,74.182 187.982 C 74.412 187.973,72.628 187.163,70.218 186.182 C 67.807 185.202,65.647 184.408,65.418 184.418 C 65.188 184.427,66.972 185.237,69.382 186.218 M332.200 185.014 C 331.540 185.317,331.270 185.566,331.600 185.568 C 331.930 185.570,332.650 185.314,333.200 185.000 C 334.465 184.277,333.789 184.287,332.200 185.014 M103.709 186.800 C 103.709 187.790,103.787 188.195,103.882 187.700 C 103.978 187.205,103.978 186.395,103.882 185.900 C 103.787 185.405,103.709 185.810,103.709 186.800 M187.379 198.600 C 187.379 205.860,187.433 208.886,187.499 205.325 C 187.565 201.764,187.566 195.824,187.499 192.125 C 187.433 188.426,187.379 191.340,187.379 198.600 M276.891 186.900 C 276.210 188.784,276.304 189.294,277.026 187.630 C 277.353 186.877,277.566 186.099,277.501 185.902 C 277.435 185.705,277.160 186.154,276.891 186.900 M213.376 199.800 C 213.376 205.960,213.432 208.424,213.499 205.276 C 213.567 202.127,213.567 197.087,213.499 194.076 C 213.431 191.064,213.376 193.640,213.376 199.800 M60.200 189.511 C 60.560 189.843,63.267 190.998,64.800 191.474 C 65.308 191.632,65.306 191.599,64.785 191.258 C 63.868 190.658,59.736 189.084,60.200 189.511 M104.441 190.573 C 104.394 191.453,105.913 196.006,106.443 196.577 C 106.636 196.784,106.410 195.884,105.941 194.577 C 105.473 193.270,104.953 191.660,104.786 191.000 C 104.601 190.269,104.466 190.102,104.441 190.573 M280.491 191.700 C 279.810 193.584,279.904 194.094,280.626 192.430 C 280.953 191.677,281.166 190.899,281.101 190.702 C 281.035 190.505,280.760 190.954,280.491 191.700 M312.000 192.931 L 307.000 195.000 306.883 198.363 C 306.818 200.212,306.908 201.869,307.083 202.045 C 307.257 202.220,307.343 200.775,307.273 198.834 L 307.146 195.304 312.673 193.071 C 315.713 191.843,317.930 190.843,317.600 190.850 C 317.270 190.857,314.750 191.794,312.000 192.931 M331.882 192.268 C 329.948 193.055,328.432 193.766,328.515 193.849 C 328.700 194.034,334.851 191.603,335.380 191.136 C 335.946 190.636,335.711 190.712,331.882 192.268 M113.630 191.600 C 113.628 192.176,114.757 194.466,114.786 193.946 C 114.794 193.806,114.537 193.086,114.216 192.346 C 113.894 191.606,113.631 191.270,113.630 191.600 M115.079 195.100 C 115.367 195.894,116.400 197.497,116.400 197.150 C 116.400 196.802,115.163 194.400,114.983 194.400 C 114.896 194.400,114.939 194.715,115.079 195.100 M73.800 195.111 C 74.160 195.443,76.867 196.598,78.400 197.074 C 78.908 197.232,78.906 197.199,78.385 196.858 C 77.468 196.258,73.336 194.684,73.800 195.111 M91.900 195.199 C 92.610 195.996,92.579 201.556,91.863 201.831 C 91.567 201.945,90.352 201.656,89.163 201.190 C 87.973 200.724,87.180 200.512,87.400 200.719 C 88.120 201.395,91.555 202.503,92.185 202.261 C 93.137 201.896,93.066 195.899,92.100 195.168 C 91.504 194.718,91.475 194.722,91.900 195.199 M278.656 196.681 C 277.518 199.668,277.208 200.842,277.626 200.584 C 277.832 200.457,278.000 200.108,278.000 199.810 C 278.000 199.511,278.366 198.413,278.813 197.371 C 279.259 196.328,279.572 195.315,279.506 195.118 C 279.441 194.922,279.058 195.625,278.656 196.681 M272.891 197.700 C 272.210 199.584,272.304 200.094,273.026 198.430 C 273.353 197.677,273.566 196.899,273.501 196.702 C 273.435 196.505,273.160 196.954,272.891 197.700 M79.200 197.334 C 79.200 197.437,79.781 197.724,80.491 197.972 C 81.201 198.219,81.606 198.257,81.391 198.056 C 80.935 197.629,79.200 197.058,79.200 197.334 M317.283 198.269 C 315.898 198.835,314.835 199.368,314.920 199.453 C 315.106 199.639,319.240 198.005,319.780 197.533 C 320.330 197.051,320.078 197.125,317.283 198.269 M117.077 198.831 C 117.475 199.508,118.056 200.273,118.368 200.531 C 118.680 200.789,118.432 200.235,117.815 199.300 C 116.520 197.337,116.009 197.012,117.077 198.831 M312.900 200.012 C 311.561 200.551,311.811 200.824,313.200 200.340 C 313.860 200.110,314.400 199.849,314.400 199.761 C 314.400 199.524,313.913 199.605,312.900 200.012 M108.400 200.561 C 108.400 200.943,110.776 204.400,111.038 204.400 C 111.148 204.400,110.661 203.545,109.954 202.500 C 108.388 200.183,108.400 200.197,108.400 200.561 M270.899 203.113 C 269.685 206.243,269.784 206.802,271.023 203.818 C 271.567 202.507,271.964 201.291,271.905 201.115 C 271.846 200.939,271.394 201.838,270.899 203.113 M119.829 202.438 C 120.473 203.229,121.081 203.808,121.179 203.725 C 121.278 203.642,120.751 202.995,120.009 202.287 L 118.658 201.000 119.829 202.438 M162.251 203.012 C 161.869 204.006,161.974 204.287,162.432 203.500 C 162.656 203.115,163.101 202.800,163.420 202.800 C 164.385 202.800,164.268 215.062,163.300 215.348 C 162.756 215.508,162.778 215.536,163.400 215.472 C 164.688 215.339,164.640 202.663,163.351 202.479 C 162.850 202.407,162.399 202.626,162.251 203.012 M114.839 208.455 C 116.951 210.515,119.426 212.617,120.339 213.126 C 122.577 214.373,122.465 213.949,120.207 212.626 C 119.222 212.048,116.747 210.030,114.707 208.142 L 111.000 204.709 114.839 208.455 M122.400 204.975 C 122.400 205.650,127.232 209.324,130.100 210.829 C 132.552 212.116,131.806 211.425,128.937 209.753 C 127.472 208.899,125.402 207.418,124.337 206.463 C 123.272 205.508,122.400 204.838,122.400 204.975 M274.891 206.900 C 274.210 208.784,274.304 209.294,275.026 207.630 C 275.353 206.877,275.566 206.099,275.501 205.902 C 275.435 205.705,275.160 206.154,274.891 206.900 M158.353 208.835 C 156.896 210.340,156.001 211.414,156.362 211.220 C 157.430 210.649,162.091 205.562,161.100 206.049 C 161.045 206.076,159.809 207.330,158.353 208.835 M268.891 208.500 C 268.210 210.384,268.304 210.894,269.026 209.230 C 269.353 208.477,269.566 207.699,269.501 207.502 C 269.435 207.305,269.160 207.754,268.891 208.500 M273.056 211.881 C 271.918 214.868,271.608 216.042,272.026 215.784 C 272.232 215.657,272.400 215.308,272.400 215.010 C 272.400 214.711,272.766 213.613,273.213 212.571 C 273.659 211.528,273.972 210.515,273.906 210.318 C 273.841 210.122,273.458 210.825,273.056 211.881 M153.200 212.454 C 152.182 213.012,152.073 213.149,152.800 212.957 C 153.823 212.686,155.692 211.565,154.989 211.643 C 154.775 211.667,153.970 212.032,153.200 212.454 M250.972 212.600 C 251.129 213.260,251.429 213.976,251.639 214.191 C 251.850 214.406,251.810 213.956,251.551 213.191 C 250.946 211.400,250.605 211.052,250.972 212.600 M187.818 212.900 C 187.968 213.395,188.255 213.976,188.456 214.191 C 188.657 214.406,188.619 214.001,188.372 213.291 C 187.865 211.838,187.397 211.508,187.818 212.900 M221.418 212.900 C 221.568 213.395,221.855 213.976,222.056 214.191 C 222.257 214.406,222.219 214.001,221.972 213.291 C 221.465 211.838,220.997 211.508,221.418 212.900 M242.032 213.042 C 241.999 213.912,240.326 216.000,239.662 216.000 C 239.455 216.000,239.179 216.277,239.050 216.615 C 238.688 217.556,241.363 215.391,241.975 214.246 C 242.260 213.714,242.396 213.036,242.278 212.739 C 242.150 212.419,242.050 212.542,242.032 213.042 M212.052 214.027 C 211.752 214.705,211.078 215.455,210.553 215.694 C 210.029 215.933,209.600 216.284,209.600 216.473 C 209.600 217.031,211.487 215.632,212.197 214.548 C 212.557 214.000,212.794 213.381,212.724 213.173 C 212.655 212.964,212.352 213.349,212.052 214.027 M149.400 213.600 C 148.381 214.038,149.432 214.038,150.800 213.600 C 151.604 213.343,151.643 213.277,151.000 213.268 C 150.560 213.262,149.840 213.411,149.400 213.600 M142.115 214.296 C 143.388 214.376,145.368 214.375,146.515 214.294 C 147.662 214.214,146.620 214.149,144.200 214.150 C 141.780 214.151,140.842 214.216,142.115 214.296 M189.700 215.682 C 191.782 217.476,191.374 217.600,183.373 217.600 L 175.946 217.600 176.192 216.700 C 176.414 215.888,176.393 215.872,175.978 216.539 C 175.155 217.857,176.070 218.021,183.624 217.909 C 191.765 217.789,192.696 217.448,189.921 215.609 L 188.600 214.734 189.700 215.682 M223.300 215.682 C 225.431 217.519,225.003 217.644,217.019 217.517 C 212.960 217.453,209.778 217.539,209.949 217.710 C 210.630 218.389,224.579 217.853,224.716 217.142 C 224.791 216.754,224.302 216.126,223.521 215.609 L 222.200 214.734 223.300 215.682 M252.900 215.682 C 254.939 217.439,254.537 217.573,246.800 217.705 L 239.599 217.828 246.895 217.814 C 254.961 217.799,255.916 217.461,253.121 215.609 L 251.800 214.734 252.900 215.682 M125.600 215.814 C 125.600 216.093,128.506 217.231,128.891 217.103 C 129.082 217.039,128.420 216.684,127.419 216.313 C 126.419 215.942,125.600 215.717,125.600 215.814 M156.600 216.800 C 155.493 217.082,155.477 217.109,156.400 217.147 C 156.950 217.169,157.670 217.013,158.000 216.800 C 158.681 216.360,158.329 216.360,156.600 216.800 M270.891 217.700 C 270.210 219.584,270.304 220.094,271.026 218.430 C 271.353 217.677,271.566 216.899,271.501 216.702 C 271.435 216.505,271.160 216.954,270.891 217.700 M130.000 217.594 C 130.330 217.811,131.035 217.991,131.567 217.994 C 132.851 218.002,132.525 217.775,130.800 217.458 C 129.815 217.277,129.578 217.318,130.000 217.594 M265.058 218.904 C 264.128 221.340,264.280 221.804,265.236 219.447 C 265.672 218.373,265.958 217.424,265.872 217.338 C 265.786 217.252,265.420 217.957,265.058 218.904 M133.400 218.410 C 134.170 218.731,137.907 218.951,137.567 218.655 C 137.475 218.576,136.320 218.413,135.000 218.293 C 133.551 218.162,132.917 218.208,133.400 218.410 M147.900 218.682 C 148.395 218.778,149.205 218.778,149.700 218.682 C 150.195 218.587,149.790 218.509,148.800 218.509 C 147.810 218.509,147.405 218.587,147.900 218.682 M140.300 219.095 C 141.455 219.176,143.345 219.176,144.500 219.095 C 145.655 219.014,144.710 218.948,142.400 218.948 C 140.090 218.948,139.145 219.014,140.300 219.095 M269.211 222.365 C 268.908 223.286,268.376 224.221,268.030 224.443 C 267.512 224.774,267.507 224.819,268.000 224.694 C 268.661 224.527,270.124 221.771,269.903 221.108 C 269.826 220.879,269.515 221.445,269.211 222.365 M263.606 222.690 C 263.599 223.273,265.659 224.407,266.680 224.382 C 267.076 224.373,266.698 224.115,265.840 223.809 C 264.982 223.503,264.130 223.016,263.946 222.727 C 263.702 222.342,263.611 222.332,263.606 222.690 " stroke="none" fill="#fccdc6" fill-rule="evenodd"></path></g></svg>